<svg width="1320" height="90" viewBox="0 0 1320 90" fill="none" xmlns="http://www.w3.org/2000/svg">
<g clip-path="url(#clip0_1_125)">
<path d="M418 74.6162V14.3838C418 6.43986 411.54 0 403.57 0L239.43 0C231.46 0 225 6.43986 225 14.3838V74.6162C225 82.5601 231.46 89 239.43 89L403.57 89C411.54 89 418 82.5601 418 74.6162Z" fill="white" fill-opacity="0.35"/>
<path d="M235.822 21.5758V67.4243C235.822 73.3823 240.668 78.2122 246.645 78.2122L396.355 78.2122C402.332 78.2122 407.178 73.3823 407.178 67.4243V21.5758C407.178 15.6178 402.332 10.7879 396.355 10.7879L246.645 10.7879C240.668 10.7879 235.822 15.6178 235.822 21.5758Z" fill="white" fill-opacity="0.3"/>
<path d="M252.056 44.2851C252.33 43.385 252.829 42.5898 253.25 41.7588C253.69 40.8918 253.668 39.9668 253.602 39.0336C253.574 38.6498 253.568 38.266 253.596 37.8849C253.652 37.0732 254.014 36.4243 254.635 35.9052C255.023 35.5795 255.433 35.284 255.851 34.9996C256.637 34.464 257.197 33.7599 257.546 32.8792C257.701 32.487 257.89 32.106 258.058 31.7167C258.513 30.673 259.335 30.1097 260.441 29.9165C260.82 29.8502 261.197 29.7702 261.576 29.7122C262.54 29.5631 263.357 29.1324 264.064 28.4697C264.343 28.2074 264.648 27.97 264.939 27.7187C265.773 27.0008 266.726 26.8158 267.781 27.0947C268.086 27.1747 268.393 27.2411 268.689 27.3404C269.786 27.7076 270.875 27.7021 271.972 27.3432C272.462 27.1831 272.963 27.0588 273.479 26.9925C274.202 26.9014 274.841 27.0864 275.429 27.4978C275.778 27.7435 276.115 28.0058 276.415 28.3068C277.287 29.1821 278.343 29.6514 279.561 29.8006C279.921 29.8447 280.276 29.9441 280.631 30.0241C281.511 30.2257 282.129 30.7531 282.52 31.5511C282.727 31.9762 282.932 32.4042 283.104 32.846C283.464 33.7571 284.04 34.4833 284.857 35.0328C285.278 35.3143 285.683 35.6153 286.071 35.9467C286.719 36.4989 287.043 37.1919 287.079 38.0341C287.104 38.5697 287.065 39.1053 287.032 39.6382C286.971 40.566 287.187 41.4163 287.644 42.2171C287.849 42.576 288.037 42.946 288.228 43.3104C288.741 44.2851 288.738 45.2625 288.228 46.2372C288.09 46.505 287.968 46.7866 287.805 47.0379C287.112 48.1064 286.918 49.2716 287.059 50.5141C287.104 50.9062 287.093 51.301 287.065 51.693C287.001 52.6208 286.508 53.2945 285.791 53.8329C285.458 54.0814 285.129 54.3327 284.785 54.5673C284.015 55.0892 283.472 55.785 283.129 56.6437C282.971 57.0357 282.791 57.4195 282.622 57.8088C282.162 58.8636 281.34 59.4378 280.221 59.6283C279.852 59.6919 279.484 59.7692 279.115 59.8272C278.143 59.979 277.315 60.4069 276.6 61.0807C276.32 61.343 276.016 61.5804 275.725 61.8317C274.888 62.5468 273.936 62.7318 272.883 62.4502C272.581 62.3701 272.271 62.3038 271.974 62.2045C270.878 61.84 269.789 61.8455 268.692 62.2045C268.213 62.3618 267.72 62.4833 267.216 62.5496C266.473 62.6462 265.811 62.4584 265.21 62.025C264.872 61.782 264.543 61.528 264.249 61.2326C263.377 60.3573 262.321 59.8907 261.103 59.7416C260.743 59.6974 260.388 59.5979 260.033 59.5179C259.166 59.3191 258.549 58.7973 258.161 58.0131C257.942 57.5714 257.734 57.1213 257.552 56.663C257.2 55.7822 256.643 55.0781 255.856 54.5425C255.421 54.2471 254.995 53.9378 254.593 53.5954C253.953 53.0515 253.632 52.3667 253.591 51.5356C253.563 50.9476 253.621 50.365 253.643 49.7824C253.668 49.0231 253.535 48.2997 253.172 47.6232C252.762 46.8529 252.319 46.0992 252.059 45.257C252.056 44.9312 252.056 44.6081 252.056 44.2851ZM257.732 44.749C257.732 51.6986 263.379 57.3257 270.365 57.3118C277.226 57.2981 282.772 51.8118 282.932 45.0802C283.098 38.0368 277.456 32.3766 270.62 32.2303C263.479 32.0756 257.732 37.8242 257.732 44.749Z" fill="#141820"/>
<path d="M318.947 38.376C321.072 34.781 327.231 34.6568 329.209 38.5361C329.328 38.5196 329.351 38.4064 329.4 38.3291C330.611 36.551 332.325 35.7253 334.453 35.6701C335.777 35.6371 337.04 35.8552 338.184 36.551C339.895 37.5946 340.807 39.1629 341.123 41.1039C341.222 41.7141 341.247 42.3271 341.245 42.9456C341.242 46.3306 341.239 49.7157 341.25 53.1008C341.25 53.3548 341.206 53.4432 340.926 53.4349C340.115 53.4128 339.303 53.4156 338.489 53.4321C338.248 53.4376 338.189 53.3713 338.192 53.1339C338.201 49.6577 338.198 46.1816 338.198 42.7054C338.198 42.0758 338.112 41.4574 337.893 40.8637C337.317 39.2954 335.83 38.4312 334.059 38.5528C332.065 38.688 330.566 39.9608 330.22 42.2912C330.137 42.8517 330.104 43.4149 330.104 43.9809C330.107 47.0237 330.101 50.0636 330.112 53.1063C330.112 53.3769 330.046 53.4404 329.78 53.4349C328.987 53.4156 328.195 53.4156 327.404 53.4349C327.132 53.4404 327.052 53.3769 327.052 53.0925C327.063 49.6053 327.06 46.1208 327.057 42.6335C327.057 41.7417 326.902 40.883 326.417 40.1183C325.647 38.9062 324.484 38.4699 323.107 38.5637C320.925 38.7157 319.415 40.1293 319.069 42.2856C318.986 42.8048 318.944 43.3266 318.944 43.8539C318.947 46.9353 318.941 50.0167 318.952 53.1008C318.952 53.3907 318.864 53.4432 318.6 53.4376C317.809 53.4211 317.016 53.4211 316.224 53.4376C315.961 53.4432 315.889 53.3852 315.891 53.1118C315.9 47.9376 315.9 42.7634 315.9 37.5918C315.9 37.1777 315.911 36.7635 315.894 36.3493C315.886 36.1395 315.963 36.1036 316.152 36.1064C317.005 36.1147 317.858 36.1147 318.711 36.1064C318.895 36.1036 318.955 36.1451 318.952 36.3384C318.939 36.99 318.947 37.6471 318.947 38.376Z" fill="#141820"/>
<path d="M309.675 38.9594C309.675 38.0924 309.681 37.2282 309.672 36.3612C309.67 36.1734 309.708 36.0989 309.919 36.1017C310.772 36.1154 311.625 36.1127 312.478 36.1017C312.683 36.0989 312.728 36.1651 312.728 36.3584C312.722 41.9661 312.722 47.5738 312.728 53.1844C312.728 53.3887 312.664 53.4356 312.47 53.4328C311.628 53.4218 310.786 53.4218 309.941 53.4328C309.731 53.4356 309.667 53.3832 309.67 53.1678C309.684 52.3036 309.675 51.4394 309.675 50.4978C309.346 50.9286 309.066 51.3041 308.739 51.6437C307.426 53.0049 305.8 53.6897 303.936 53.836C301.382 54.0348 299.125 53.339 297.238 51.5747C294.881 49.3686 293.989 46.6295 294.396 43.4792C294.834 40.0914 296.682 37.645 299.811 36.317C302.376 35.2291 304.983 35.3754 307.432 36.8195C308.335 37.3579 309.03 38.1228 309.675 38.9594ZM297.352 44.7604C297.352 48.2807 299.992 50.9341 303.479 50.959C307.013 50.9838 309.62 48.2089 309.689 44.915C309.761 41.3697 307.019 38.5589 303.498 38.5783C300.003 38.6004 297.352 41.2483 297.352 44.7604Z" fill="#141820"/>
<path d="M388.144 50.4837C387.665 51.1712 387.178 51.7345 386.599 52.2121C385.369 53.2282 383.936 53.7307 382.361 53.8439C379.818 54.0289 377.574 53.3276 375.696 51.5688C373.519 49.5311 372.635 47.0103 372.788 44.0725C373.007 39.8563 376.27 36.4382 379.876 35.8224C382.297 35.4083 384.588 35.7174 386.574 37.3078C387.169 37.7828 387.659 38.357 388.144 39.0611C388.144 38.1969 388.144 37.4238 388.144 36.6535C388.144 36.1096 388.144 36.1096 388.701 36.1096C389.432 36.1096 390.163 36.1206 390.894 36.104C391.135 36.0985 391.196 36.1648 391.196 36.4022C391.188 40.7565 391.191 45.1134 391.191 49.4676C391.191 50.7018 391.186 51.9332 391.196 53.1675C391.199 53.3801 391.141 53.4381 390.925 53.4353C390.092 53.4242 389.26 53.4214 388.427 53.4353C388.208 53.4381 388.133 53.3938 388.136 53.1564C388.153 52.3005 388.144 51.4418 388.144 50.4837ZM375.818 44.76C375.818 48.2831 378.455 50.9365 381.945 50.9586C385.48 50.9835 388.099 48.2085 388.155 44.887C388.21 41.3501 385.469 38.5614 381.967 38.5807C378.466 38.6 375.818 41.2451 375.818 44.76Z" fill="#141820"/>
<path d="M358.435 50.4924C357.926 51.2185 357.402 51.8149 356.773 52.3119C355.513 53.3058 354.058 53.7836 352.471 53.8526C348.561 54.0238 345.774 52.2484 343.976 48.8633C343.189 47.3806 342.973 45.7571 343.09 44.1032C343.314 40.8645 344.83 38.3409 347.663 36.7698C350.58 35.1546 353.574 35.1961 356.452 36.999C357.246 37.496 357.851 38.2084 358.435 39.0505C358.435 38.5479 358.435 38.1283 358.435 37.7113C358.435 37.2475 358.441 36.7809 358.432 36.317C358.43 36.1652 358.469 36.1044 358.634 36.1072C359.518 36.1154 360.401 36.1154 361.282 36.1072C361.448 36.1044 361.501 36.1652 361.482 36.317C361.476 36.3557 361.482 36.3971 361.482 36.4385C361.482 41.9938 361.479 47.5518 361.487 53.1071C361.487 53.3638 361.44 53.4494 361.161 53.4411C360.338 53.4191 359.516 53.4246 358.696 53.4384C358.474 53.4411 358.427 53.3722 358.43 53.1651C358.441 52.3036 358.435 51.4477 358.435 50.4924ZM358.435 44.7852C358.435 41.2483 355.795 38.5866 352.283 38.5839C348.768 38.5811 346.109 41.2427 346.109 44.7687C346.109 48.278 348.765 50.9535 352.25 50.9535C355.782 50.9535 358.435 48.3084 358.435 44.7852Z" fill="#141820"/>
<path d="M367.717 38.8097C368.146 38.1416 368.587 37.5203 369.194 37.0316C370.282 36.1481 371.562 35.8444 372.93 35.8029C373.085 35.7974 373.144 35.8416 373.144 36.0045C373.138 36.9239 373.133 37.8434 373.146 38.7628C373.149 39.0003 373.01 38.9616 372.872 38.9616C371.861 38.9561 370.908 39.1714 370.016 39.6656C368.709 40.389 368.036 41.5211 367.809 42.9596C367.74 43.3986 367.717 43.8431 367.717 44.2877C367.72 47.2282 367.714 50.1688 367.725 53.1093C367.725 53.3744 367.665 53.4489 367.393 53.4407C366.612 53.4213 365.829 53.4186 365.047 53.4407C364.751 53.4489 364.659 53.3882 364.659 53.0706C364.671 47.5844 364.668 42.0954 364.668 36.6091C364.668 36.5181 364.676 36.4269 364.665 36.3359C364.648 36.1729 364.695 36.1039 364.878 36.1066C365.751 36.115 366.623 36.1177 367.499 36.1066C367.714 36.1039 367.717 36.206 367.717 36.3635C367.714 37.1752 367.717 37.9924 367.717 38.8097Z" fill="#141820"/>
<path d="M257.732 44.7493C257.732 37.8274 263.479 32.0761 270.62 32.2279C277.456 32.3743 283.098 38.0344 282.932 45.0779C282.774 51.8121 277.226 57.2984 270.365 57.3095C263.379 57.3232 257.732 51.6962 257.732 44.7493ZM270.318 56.5943C276.888 56.5943 282.209 51.3096 282.218 44.799C282.226 38.2912 276.971 33.1059 270.648 32.943C263.956 32.769 258.443 38.1504 258.446 44.7438C258.449 51.3041 263.748 56.5943 270.318 56.5943Z" fill="#141820"/>
<path d="M270.318 56.5941C263.748 56.5941 258.449 51.3039 258.447 44.7409C258.444 38.1474 263.959 32.7688 270.648 32.94C276.972 33.1029 282.226 38.2883 282.218 44.7961C282.21 51.3094 276.889 56.5941 270.318 56.5941ZM273.593 39.6549C272.108 37.9348 270.258 37.4875 268.177 37.794C266.222 38.0812 264.804 39.2105 263.765 40.8201C262.712 42.4492 262.493 44.2522 262.776 46.138C263.192 48.9018 265.624 51.6905 268.834 51.8285C270.349 51.8948 271.756 51.5855 272.933 50.5584C273.152 50.3679 273.352 50.1581 273.593 49.9234C273.593 50.3651 273.604 50.7766 273.587 51.1852C273.579 51.395 273.634 51.4558 273.85 51.453C274.825 51.4419 275.8 51.4392 276.772 51.4558C277.013 51.4586 277.047 51.3813 277.047 51.1686C277.038 49.1089 277.041 47.0463 277.041 44.9866C277.041 42.775 277.041 40.5606 277.041 38.349C277.041 38.211 277.077 38.0812 276.839 38.0839C275.825 38.0977 274.809 38.095 273.795 38.0866C273.606 38.0839 273.584 38.1613 273.587 38.3186C273.598 38.7383 273.593 39.158 273.593 39.6549Z" fill="#141820"/>
<path d="M269.855 40.9804C272.08 40.9915 273.603 42.5736 273.592 44.8625C273.581 47.0107 271.98 48.5706 269.825 48.5651C267.62 48.5568 266.041 46.8698 266.119 44.5891C266.185 42.5294 267.75 40.9693 269.855 40.9804Z" fill="#141820"/>
</g>
<g clip-path="url(#clip1_1_125)">
<path d="M869 74.6162V14.3838C869 6.43986 862.54 0 854.57 0L690.43 0C682.46 0 676 6.43986 676 14.3838V74.6162C676 82.5601 682.46 89 690.43 89L854.57 89C862.54 89 869 82.5601 869 74.6162Z" fill="white" fill-opacity="0.35"/>
<path d="M686.822 21.5758V67.4243C686.822 73.3823 691.668 78.2122 697.645 78.2122L847.355 78.2122C853.332 78.2122 858.178 73.3823 858.178 67.4243V21.5758C858.178 15.6178 853.332 10.7879 847.355 10.7879L697.645 10.7879C691.668 10.7879 686.822 15.6178 686.822 21.5758Z" fill="white" fill-opacity="0.3"/>
<path d="M727.707 26.9697C728.1 27.0994 728.514 27.0832 728.915 27.1426C731.925 27.5881 734.645 28.7196 737.083 30.5289C737.216 30.6288 737.23 30.6855 737.118 30.8179C736.043 32.0736 734.976 33.332 733.914 34.5985C733.794 34.7416 733.729 34.7389 733.586 34.6362C731.947 33.4643 730.126 32.727 728.133 32.4435C725.686 32.0951 723.316 32.403 721.089 33.4778C717.08 35.4167 714.671 38.6005 713.967 42.9833C713.146 48.0953 715.803 53.3448 720.469 55.7266C724.958 58.0193 729.349 57.6925 733.548 54.9111C733.732 54.7896 733.803 54.8004 733.941 54.9652C734.989 56.2181 736.043 57.463 737.105 58.7025C737.235 58.8538 737.194 58.9132 737.056 59.0157C734.946 60.5848 732.602 61.6595 730.023 62.1806C726.133 62.9692 722.346 62.5992 718.767 60.8791C713.425 58.3082 710.106 54.0983 708.819 48.3194C708.679 47.6821 708.597 47.0366 708.53 46.3885C708.524 46.3372 708.554 46.2643 708.467 46.2454C708.467 45.2571 708.467 44.2687 708.467 43.2804C708.551 43.2587 708.521 43.1886 708.53 43.1373C708.587 42.716 708.63 42.2947 708.7 41.8761C709.326 38.1009 711.003 34.8523 713.72 32.1573C716.538 29.365 719.938 27.6907 723.882 27.129C724.226 27.0805 724.584 27.1075 724.911 26.9724C725.841 26.9697 726.775 26.9697 727.707 26.9697Z" fill="#141820"/>
<path d="M828.547 48.3867C825.816 48.3867 823.085 48.3921 820.354 48.3813C820.067 48.3813 820.037 48.4434 820.102 48.708C820.839 51.7488 823.185 53.7525 826.325 54.0198C827.36 54.1089 828.384 54.0846 829.4 53.8497C830.957 53.4878 832.19 52.6588 833.076 51.3302C833.188 51.1654 833.261 51.1304 833.439 51.2356C834.295 51.7325 835.154 52.2186 836.021 52.6966C836.208 52.7992 836.222 52.8641 836.1 53.0422C834.425 55.4996 832.098 56.8958 829.151 57.2793C826.962 57.5628 824.798 57.4521 822.752 56.5799C819.214 55.0676 817.12 52.3834 816.543 48.5893C816.196 46.2993 816.391 44.0444 817.431 41.9408C819.005 38.7569 821.552 36.8289 825.101 36.2807C826.97 35.9917 828.823 36.07 830.614 36.7235C833.054 37.6147 834.761 39.3294 835.948 41.5817C837.026 43.6286 837.318 45.824 837.088 48.1059C837.067 48.3111 837.004 48.3975 836.766 48.3975C834.027 48.384 831.286 48.3867 828.547 48.3867ZM833.575 45.3028C833.534 45.0813 833.504 44.8897 833.461 44.6979C833.131 43.2262 832.5 41.9218 831.296 40.9525C829.275 39.324 826.978 39.0945 824.588 39.8345C822.099 40.6068 820.685 42.4106 820.116 44.9085C820.027 45.3001 820.035 45.3028 820.427 45.3028C824.687 45.3028 828.945 45.3028 833.204 45.3028C833.318 45.3028 833.437 45.3028 833.575 45.3028Z" fill="#141820"/>
<path d="M766.921 50.3931C767.836 50.9223 768.727 51.4355 769.619 51.9485C769.949 52.1403 769.952 52.143 769.744 52.4832C768.3 54.8326 766.233 56.3907 763.556 57.047C760.292 57.8436 757.179 57.4385 754.416 55.424C751.853 53.558 750.425 51.0169 750.157 47.8492C749.984 45.7834 750.219 43.7743 751.184 41.9218C752.817 38.7812 755.375 36.8315 758.921 36.2779C761.094 35.9377 763.212 36.1348 765.23 37.0611C767.143 37.9387 768.63 39.2808 769.636 41.1387C769.752 41.3574 769.763 41.4654 769.514 41.6031C768.671 42.0595 767.842 42.5456 767.016 43.029C766.851 43.1262 766.786 43.1127 766.688 42.9371C765.509 40.8281 763.662 39.7615 761.281 39.6102C758.585 39.4375 756.415 40.4501 754.868 42.6672C753.774 44.2334 753.476 46.0049 753.744 47.8628C754.118 50.4768 755.543 52.3914 757.989 53.3581C760.777 54.4599 763.418 54.0522 765.707 52.0133C766.209 51.5597 766.59 51.0034 766.921 50.3931Z" fill="#141820"/>
<path d="M805.369 50.3909C806.338 50.9499 807.291 51.5089 808.256 52.0571C808.43 52.157 808.332 52.2353 808.278 52.3326C807.382 53.9096 806.122 55.1221 804.551 56.024C802.532 57.1826 800.352 57.566 798.048 57.3445C794.345 56.9854 791.609 55.1329 789.794 51.9329C788.772 50.1317 788.467 48.1523 788.569 46.1027C788.697 43.567 789.58 41.3391 791.325 39.4677C793.3 37.3533 795.748 36.2758 798.642 36.1489C801.001 36.0462 803.185 36.5567 805.149 37.8907C806.419 38.7521 807.411 39.8593 808.118 41.223C808.205 41.3904 808.197 41.4634 808.023 41.5605C807.159 42.0412 806.303 42.5354 805.447 43.0323C805.301 43.116 805.239 43.1268 805.14 42.954C803.898 40.7396 801.952 39.6675 799.446 39.6C796.545 39.519 794.315 40.7504 792.947 43.2861C790.999 46.8966 792.292 52.0355 796.905 53.537C799.522 54.3876 801.982 53.9366 804.09 52.0679C804.621 51.5953 805.027 51.0228 805.369 50.3909Z" fill="#141820"/>
<path d="M744.221 44.7739C744.145 49.8318 742.3 54.1363 738.657 57.6738C738.508 57.8196 738.434 57.8439 738.28 57.6576C737.237 56.4019 736.18 55.1597 735.118 53.9203C734.997 53.7771 735.01 53.715 735.14 53.5827C737.952 50.6959 739.198 47.2583 738.738 43.2508C738.41 40.3938 737.156 37.9688 735.129 35.9353C735.016 35.8219 734.994 35.768 735.105 35.6356C736.178 34.3799 737.248 33.1215 738.307 31.855C738.44 31.6956 738.513 31.7146 738.646 31.8442C741.753 34.847 743.598 38.4737 744.104 42.7647C744.18 43.4264 744.226 44.096 744.221 44.7739Z" fill="#141820"/>
<path d="M810.226 42.0922C810.226 37.299 810.229 32.5057 810.218 27.7125C810.218 27.4181 810.299 27.3641 810.576 27.3695C811.548 27.3885 812.521 27.3858 813.496 27.3695C813.753 27.3641 813.799 27.4451 813.799 27.6828C813.794 36.5888 813.794 45.4921 813.794 54.3982C813.794 55.138 813.788 55.8807 813.797 56.6206C813.799 56.8069 813.761 56.8744 813.556 56.8717C812.524 56.8609 811.491 56.8609 810.457 56.8717C810.245 56.8744 810.221 56.7961 810.223 56.6179C810.231 55.7672 810.226 54.9166 810.226 54.0687C810.226 50.0774 810.226 46.0835 810.226 42.0922Z" fill="#141820"/>
<path d="M782.642 39.8966C783.053 39.1891 783.503 38.5221 784.102 37.9659C785.19 36.9558 786.512 36.486 787.97 36.3401C788.236 36.3132 788.504 36.3105 788.772 36.2862C788.935 36.2726 788.973 36.3374 788.97 36.4887C788.965 37.585 788.965 38.6814 788.97 39.7779C788.97 39.9426 788.937 39.9803 788.753 39.9776C786.908 39.9587 785.269 40.4881 783.988 41.8625C783.158 42.751 782.839 43.8663 782.701 45.0464C782.644 45.5379 782.639 46.032 782.639 46.5262C782.642 49.8748 782.636 53.2259 782.647 56.5745C782.647 56.8257 782.582 56.8797 782.338 56.8743C781.346 56.858 780.352 56.8634 779.361 56.8715C779.166 56.8743 779.09 56.8392 779.09 56.6177C779.095 50.0476 779.095 43.4774 779.09 36.9073C779.09 36.7074 779.133 36.6372 779.35 36.6399C780.371 36.6507 781.395 36.6507 782.416 36.6399C782.606 36.6372 782.647 36.6967 782.644 36.8721C782.636 37.8795 782.642 38.8894 782.642 39.8966Z" fill="#141820"/>
<path d="M775.344 46.7561C775.344 50.0263 775.341 53.2966 775.349 56.5695C775.349 56.8179 775.281 56.8773 775.038 56.8746C774.035 56.8611 773.033 56.8638 772.03 56.8719C771.841 56.8746 771.781 56.8315 771.781 56.6316C771.787 50.0507 771.787 43.4697 771.781 36.8887C771.781 36.6619 771.865 36.6377 772.058 36.6404C773.041 36.6484 774.024 36.6538 775.005 36.6377C775.271 36.6322 775.352 36.6943 775.349 36.9724C775.338 40.2346 775.344 43.494 775.344 46.7561Z" fill="#141820"/>
<path d="M771.186 30.6588C771.178 29.3357 772.21 28.3095 773.499 28.2528C774.83 28.1933 775.96 29.3708 775.946 30.6184C775.932 31.9443 774.93 32.9813 773.613 32.9894C772.229 32.9975 771.191 32.001 771.186 30.6588Z" fill="#141820"/>
</g>
<g clip-path="url(#clip2_1_125)">
<path d="M1320 74.6162V14.3838C1320 6.43986 1313.54 0 1305.57 0L1141.43 0C1133.46 0 1127 6.43986 1127 14.3838V74.6162C1127 82.5601 1133.46 89 1141.43 89L1305.57 89C1313.54 89 1320 82.5601 1320 74.6162Z" fill="white" fill-opacity="0.35"/>
<path d="M1137.82 21.5758V67.4243C1137.82 73.3823 1142.67 78.2122 1148.64 78.2122L1298.36 78.2122C1304.33 78.2122 1309.18 73.3823 1309.18 67.4243V21.5758C1309.18 15.6178 1304.33 10.7879 1298.36 10.7879L1148.64 10.7879C1142.67 10.7879 1137.82 15.6178 1137.82 21.5758Z" fill="white" fill-opacity="0.3"/>
<path d="M1189.56 26.997C1189.32 27.765 1189.09 28.5303 1188.85 29.2983C1187.66 33.1928 1186.46 37.0873 1185.26 40.9818C1185.19 41.197 1185.21 41.2569 1185.45 41.2842C1186.73 41.4258 1188 41.5919 1189.27 41.7417C1189.41 41.758 1189.5 41.8124 1189.57 41.935C1190.53 43.5092 1191.48 45.086 1192.45 46.652C1192.56 46.8372 1192.45 46.9216 1192.36 47.0306C1190.62 49.2039 1188.88 51.3772 1187.14 53.5505C1184.8 56.4618 1182.47 59.3759 1180.14 62.2873C1180.06 62.3907 1180 62.5296 1179.8 62.5759C1179.94 62.1484 1180.06 61.7507 1180.18 61.3531C1181.52 57.0446 1182.86 52.7389 1184.2 48.4331C1184.28 48.2016 1184.25 48.1417 1184 48.1145C1182.76 47.9756 1181.52 47.8122 1180.28 47.6679C1180.09 47.646 1179.97 47.5834 1179.86 47.4064C1178.94 45.8704 1178 44.3425 1177.06 42.8147C1176.96 42.6459 1176.96 42.5423 1177.09 42.3789C1181.16 37.327 1185.22 32.2722 1189.28 27.2148C1189.35 27.1304 1189.42 27.0514 1189.49 26.9697C1189.51 26.9833 1189.53 26.9888 1189.56 26.997Z" fill="#141820"/>
<path d="M1182.44 60.7731C1183.42 59.5476 1184.38 58.352 1185.33 57.1509C1185.45 57.0066 1185.6 57.0339 1185.74 57.023C1187.69 56.8596 1189.51 56.2958 1191.15 55.2527C1194.6 53.0712 1196.6 49.9638 1196.99 45.9032C1197.53 40.3201 1194.16 35.1184 1188.85 33.2391C1188.62 33.1602 1188.56 33.0921 1188.64 32.8497C1188.97 31.8012 1189.3 30.7445 1189.6 29.6879C1189.68 29.4482 1189.77 29.4155 1189.99 29.4972C1194.01 30.9297 1197.08 33.4952 1199.08 37.2481C1202.35 43.3731 1201.35 50.7563 1196.58 55.8273C1193.9 58.6761 1190.59 60.3429 1186.69 60.8331C1185.32 61.0046 1183.94 60.9801 1182.56 60.8112C1182.54 60.8112 1182.51 60.7977 1182.44 60.7731Z" fill="#141820"/>
<path d="M1186.94 28.7884C1186.5 29.3277 1186.1 29.8315 1185.7 30.3326C1185.16 31.0108 1184.61 31.6834 1184.07 32.3643C1183.97 32.5005 1183.85 32.5659 1183.68 32.5822C1178.23 33.0942 1173.85 36.8744 1172.7 42.2068C1171.82 46.3273 1172.88 49.9958 1175.72 53.1278C1177.07 54.6176 1178.72 55.6742 1180.62 56.3469C1180.78 56.4041 1180.83 56.4504 1180.77 56.6329C1180.42 57.7304 1180.08 58.8307 1179.75 59.9337C1179.69 60.1434 1179.6 60.127 1179.43 60.0671C1175.4 58.621 1172.36 56.0283 1170.35 52.2618C1168.82 49.4076 1168.22 46.3437 1168.59 43.141C1169.26 37.4953 1172.14 33.2767 1177.13 30.526C1180 28.9383 1183.13 28.4017 1186.4 28.7122C1186.56 28.7312 1186.71 28.7585 1186.94 28.7884Z" fill="#141820"/>
<path d="M1272.97 53.0383C1271.7 53.0383 1270.45 53.0356 1269.2 53.041C1269 53.041 1269.01 52.8967 1268.97 52.7878C1268.57 51.5377 1268.17 50.2904 1267.79 49.0348C1267.73 48.817 1267.63 48.7652 1267.42 48.7652C1265.55 48.7734 1263.68 48.7734 1261.8 48.7652C1261.6 48.7652 1261.51 48.817 1261.45 49.0158C1261.06 50.2795 1260.65 51.5377 1260.26 52.7986C1260.21 52.9811 1260.13 53.041 1259.94 53.041C1258.77 53.0301 1257.59 53.0356 1256.38 53.0356C1256.55 52.5508 1256.7 52.0933 1256.86 51.6357C1258.71 46.3441 1260.55 41.0552 1262.39 35.7636C1262.47 35.5293 1262.57 35.4504 1262.82 35.4531C1264.08 35.4694 1265.34 35.4639 1266.6 35.4558C1266.79 35.4558 1266.88 35.4994 1266.94 35.6873C1268.93 41.3902 1270.92 47.093 1272.91 52.7932C1272.94 52.8695 1272.95 52.9484 1272.97 53.0383ZM1264.61 38.8111C1264.58 38.8737 1264.55 38.9145 1264.54 38.9608C1263.83 41.2349 1263.12 43.5117 1262.4 45.7831C1262.32 46.0118 1262.42 46.0009 1262.58 46.0009C1263.93 45.9982 1265.29 45.9955 1266.63 46.0037C1266.86 46.0037 1266.9 45.971 1266.83 45.7422C1266.16 43.6506 1265.51 41.5563 1264.85 39.4619C1264.78 39.2496 1264.74 39.0235 1264.61 38.8111Z" fill="#141820"/>
<path d="M1231.51 42.9267C1231.51 42.461 1231.51 41.998 1231.51 41.5323C1231.51 41.1564 1231.52 40.7779 1231.53 40.4021C1231.92 40.334 1232.3 40.3884 1232.69 40.3721C1232.74 40.3694 1232.79 40.3776 1232.84 40.3694C1233.01 40.3448 1233.06 40.4103 1233.06 40.5791C1233.04 40.9168 1233.05 41.2572 1233.05 41.595C1233.05 45.3124 1233.05 49.0299 1233.05 52.7474C1233.05 55.3129 1231.53 57.1321 1228.99 57.587C1227.44 57.862 1225.94 57.7722 1224.52 57.0395C1223.44 56.4786 1222.65 55.6588 1222.32 54.4523C1222.27 54.2535 1222.28 54.1717 1222.52 54.1826C1222.94 54.2018 1223.36 54.1881 1223.78 54.1881C1223.87 54.1881 1223.95 54.1717 1224 54.2862C1224.51 55.4953 1225.51 56.04 1226.73 56.2525C1227.65 56.4104 1228.55 56.3424 1229.41 55.9802C1230.69 55.4409 1231.35 54.4495 1231.41 53.0851C1231.45 52.2 1231.42 51.3122 1231.42 50.3454C1231.16 50.8764 1230.89 51.3203 1230.52 51.6989C1228.32 53.9703 1224.49 53.559 1222.77 50.8655C1221.89 49.4875 1221.64 47.9515 1221.68 46.3501C1221.71 45.1327 1221.96 43.9643 1222.53 42.8749C1224.16 39.7376 1228.03 39.5196 1230.04 41.1456C1230.34 41.3907 1230.62 41.663 1230.86 41.9735C1231.09 42.2704 1231.28 42.5945 1231.51 42.9267ZM1231.42 46.7668C1231.42 45.7372 1231.28 44.8059 1230.87 43.9371C1230.17 42.4746 1229.04 41.6167 1227.37 41.6031C1225.73 41.5895 1224.57 42.4065 1223.92 43.8744C1223.12 45.721 1223.12 47.6165 1223.93 49.4657C1224.54 50.8655 1225.66 51.6662 1227.22 51.7153C1228.75 51.7616 1229.91 51.0753 1230.68 49.7598C1231.23 48.8148 1231.41 47.7717 1231.42 46.7668Z" fill="#141820"/>
<path d="M1278.46 44.258C1278.46 47.0876 1278.46 49.9173 1278.47 52.7496C1278.47 52.9784 1278.42 53.0492 1278.18 53.0465C1277.14 53.0329 1276.1 53.0356 1275.06 53.0438C1274.85 53.0465 1274.76 53.0165 1274.76 52.7742C1274.77 47.0849 1274.77 41.3929 1274.77 35.7036C1274.77 35.5048 1274.82 35.4586 1275.02 35.4586C1276.08 35.4667 1277.14 35.4721 1278.2 35.4558C1278.44 35.4531 1278.47 35.5239 1278.47 35.7363C1278.46 38.5796 1278.46 41.4174 1278.46 44.258Z" fill="#141820"/>
<path d="M1237.58 42.5718C1237.94 41.9781 1238.33 41.4552 1238.88 41.0467C1240.73 39.6604 1243.79 39.9029 1245.24 41.5641C1246.03 42.471 1246.34 43.5577 1246.35 44.7342C1246.36 47.406 1246.35 50.0749 1246.36 52.7466C1246.36 52.9754 1246.31 53.0598 1246.06 53.0462C1245.69 53.0244 1245.32 53.0299 1244.95 53.0434C1244.75 53.0516 1244.7 52.989 1244.7 52.7929C1244.71 51.5973 1244.7 50.4017 1244.7 49.2061C1244.7 47.7708 1244.74 46.3356 1244.7 44.9004C1244.63 42.4575 1242.93 41.3408 1240.69 41.6622C1238.88 41.9236 1237.69 43.2581 1237.61 45.0883C1237.52 47.0001 1237.59 48.9147 1237.58 50.8266C1237.57 51.4748 1237.57 52.123 1237.58 52.7711C1237.58 52.9672 1237.55 53.0571 1237.32 53.0462C1236.92 53.0272 1236.52 53.0353 1236.12 53.0434C1235.98 53.0462 1235.91 53.008 1235.93 52.861C1235.93 52.8119 1235.93 52.7602 1235.93 52.7112C1235.93 47.071 1235.93 41.4307 1235.92 35.7905C1235.92 35.5426 1235.96 35.4337 1236.24 35.4582C1236.59 35.4882 1236.94 35.4827 1237.29 35.4582C1237.54 35.4391 1237.58 35.5372 1237.58 35.7578C1237.57 37.9202 1237.57 40.0826 1237.57 42.245C1237.58 42.354 1237.58 42.4629 1237.58 42.5718Z" fill="#141820"/>
<path d="M1205.11 44.2255C1205.11 41.404 1205.11 38.5852 1205.1 35.7637C1205.1 35.516 1205.15 35.4424 1205.41 35.4587C1205.79 35.4832 1206.17 35.4751 1206.55 35.4615C1206.73 35.456 1206.79 35.4968 1206.79 35.6902C1206.77 36.1968 1206.78 36.706 1206.78 37.2153C1206.78 41.8698 1206.78 46.5241 1206.77 51.1784C1206.77 51.4534 1206.85 51.5134 1207.11 51.5134C1209.82 51.5025 1212.52 51.5079 1215.22 51.5079C1215.61 51.5079 1215.61 51.5079 1215.61 51.911C1215.61 52.1697 1215.58 52.4312 1215.62 52.6872C1215.66 53.0086 1215.52 53.0576 1215.24 53.0521C1214.18 53.0358 1213.11 53.0467 1212.05 53.0467C1209.86 53.0467 1207.67 53.0385 1205.48 53.0549C1205.15 53.0576 1205.1 52.9568 1205.1 52.6627C1205.11 49.8467 1205.11 47.0361 1205.11 44.2255Z" fill="#141820"/>
<path d="M1249.75 46.2031C1249.75 44.7978 1249.74 43.3925 1249.75 41.9872C1249.75 41.7639 1249.7 41.7012 1249.47 41.7121C1249.01 41.7312 1248.55 41.7121 1248.09 41.7203C1247.91 41.7231 1247.84 41.6903 1247.85 41.4943C1247.86 41.1866 1247.86 40.876 1247.85 40.5683C1247.84 40.4104 1247.89 40.3641 1248.05 40.3668C1248.54 40.3749 1249.03 40.3586 1249.52 40.3749C1249.71 40.3803 1249.75 40.3178 1249.75 40.1408C1249.74 39.2447 1249.75 38.346 1249.74 37.45C1249.73 37.2348 1249.8 37.1858 1250 37.194C1250.38 37.2103 1250.76 37.2103 1251.14 37.194C1251.34 37.1858 1251.37 37.2484 1251.37 37.4281C1251.36 38.3242 1251.37 39.2229 1251.36 40.1189C1251.36 40.334 1251.42 40.3803 1251.62 40.3749C1252.29 40.3613 1252.97 40.3776 1253.64 40.3641C1253.84 40.3613 1253.89 40.4185 1253.88 40.6119C1253.87 40.8787 1253.86 41.1511 1253.88 41.418C1253.9 41.644 1253.84 41.7285 1253.59 41.7203C1252.92 41.7012 1252.25 41.7203 1251.58 41.7094C1251.42 41.7067 1251.36 41.7448 1251.36 41.9191C1251.37 44.569 1251.37 47.2217 1251.37 49.8716C1251.37 50.1194 1251.39 50.3699 1251.46 50.6096C1251.63 51.2714 1252.05 51.6254 1252.73 51.6663C1253.07 51.6854 1253.41 51.6717 1253.75 51.6582C1253.89 51.6527 1253.95 51.6854 1253.94 51.8352C1253.93 52.1728 1253.94 52.5133 1253.94 52.851C1253.94 52.9572 1253.94 53.0362 1253.79 53.0498C1253.1 53.1152 1252.41 53.1533 1251.73 53.0199C1250.58 52.7938 1249.96 52.0939 1249.8 50.8847C1249.76 50.5497 1249.74 50.212 1249.74 49.8716C1249.75 48.6542 1249.75 47.4287 1249.75 46.2031Z" fill="#141820"/>
<path d="M1217.79 46.6819C1217.79 44.6693 1217.79 42.6566 1217.78 40.6413C1217.78 40.4208 1217.83 40.3499 1218.06 40.3608C1218.43 40.3827 1218.8 40.3772 1219.17 40.3608C1219.38 40.3526 1219.45 40.4071 1219.44 40.6195C1219.43 41.7253 1219.44 42.831 1219.44 43.9394C1219.44 46.8699 1219.43 49.8003 1219.44 52.7306C1219.44 52.9758 1219.39 53.0602 1219.13 53.0466C1218.78 53.0248 1218.41 53.0276 1218.05 53.0466C1217.84 53.0575 1217.78 52.9922 1217.78 52.7824C1217.79 50.748 1217.79 48.7136 1217.79 46.6819Z" fill="#141820"/>
<path d="M1219.7 36.7355C1219.71 37.3375 1219.24 37.814 1218.63 37.8277C1218.04 37.8386 1217.54 37.3564 1217.54 36.7627C1217.53 36.1663 1218.01 35.6788 1218.61 35.6761C1219.22 35.6679 1219.7 36.1391 1219.7 36.7355Z" fill="#141820"/>
</g>
<g clip-path="url(#clip3_1_125)">
<path d="M193 74.6162V14.3838C193 6.43986 186.54 0 178.57 0L14.4299 0C6.46048 0 0 6.43986 0 14.3838V74.6162C0 82.5601 6.46048 89 14.4299 89L178.57 89C186.54 89 193 82.5601 193 74.6162Z" fill="white" fill-opacity="0.35"/>
<path d="M10.8224 21.5758L10.8224 67.4243C10.8224 73.3823 15.6678 78.2122 21.6449 78.2122L171.355 78.2122C177.332 78.2122 182.178 73.3823 182.178 67.4243V21.5758C182.178 15.6178 177.332 10.7879 171.355 10.7879L21.6449 10.7879C15.6678 10.7879 10.8224 15.6178 10.8224 21.5758Z" fill="white" fill-opacity="0.3"/>
<path d="M60.3663 48.9718C60.2304 48.0403 59.5269 47.5908 58.845 47.1331C58.1523 46.6673 57.4351 46.2287 56.9217 45.5544C56.1937 44.6013 55.9138 43.5451 56.4191 42.4105C57.1417 40.7885 59.3639 40.3309 60.801 41.5359C61.2383 41.9014 61.5154 41.9691 62.0452 41.7227C63.1942 41.1838 64.4031 41.5142 65.2751 42.4999C66.4378 43.8132 66.7394 45.3459 66.2368 46.9896C65.4381 49.5892 63.7321 51.3818 61.0889 52.1373C59.2987 52.6491 57.5356 52.3701 55.903 51.4631C53.2651 49.9954 51.5374 47.8182 51.0104 44.8341C50.2443 40.4987 52.059 36.426 56.2995 34.4601C60.4912 32.5159 64.5471 32.9708 68.2091 35.7978C70.3958 37.4849 71.5585 39.8461 71.7216 42.5892C72.0068 47.3822 69.7928 50.8376 65.6935 53.188C64.3108 53.9814 62.7759 54.3632 61.2438 54.7477C60.3201 54.9806 59.3938 55.2027 58.5081 55.5655C58.2039 55.6901 57.916 55.8444 57.6551 56.0448C57.4949 56.1694 57.3672 56.3183 57.2884 56.5051C57.2232 56.6622 57.2069 56.8085 57.3618 56.9303C57.5247 57.0576 57.5899 56.8923 57.6796 56.8246C58.7853 56.015 60.043 55.5845 61.3769 55.3435C62.2135 55.1918 63.0557 55.1377 63.8924 55.3435C64.2455 55.4301 64.5689 55.5791 64.8296 55.8363C65.5088 56.5024 65.3648 57.5071 64.5145 58.027C63.9304 58.3844 63.2758 58.5577 62.6102 58.6741C60.9857 58.9558 59.3666 58.9667 57.7665 58.5063C57.6388 58.4684 57.5981 58.5117 57.5628 58.6336C57.5057 58.8204 57.5492 58.9883 57.609 59.1535C57.6769 59.3403 57.791 59.5028 57.9187 59.6572C58.3288 60.15 58.3805 60.1527 58.9184 59.8521C60.0729 59.2076 61.2954 58.9017 62.6129 59.2104C63.1644 59.3403 63.6207 59.6355 63.8979 60.1473C64.2157 60.7349 64.0526 61.206 63.4387 61.4795C62.8927 61.7232 62.3059 61.7693 61.7191 61.7775C60.6325 61.7909 59.5785 61.6312 58.587 61.1709C58.4483 61.1059 58.3723 61.1384 58.2773 61.2277C57.9458 61.5337 57.7883 61.8939 57.9187 62.3461C57.9404 62.4219 57.9567 62.4977 57.9322 62.5763C57.4677 62.1023 57.3998 61.5798 57.7475 60.9705C57.8371 60.8135 57.8181 60.7539 57.6796 60.6455C57.0602 60.1445 56.5685 59.5623 56.5685 58.7094C56.5685 58.0676 56.5631 58.0758 56.2208 57.545C55.797 56.8896 55.9138 56.2398 56.3023 55.6196C56.726 54.9481 57.3862 54.5609 58.0816 54.2224C59.228 53.6673 60.4451 53.3044 61.6512 52.9172C63.6017 52.289 65.3539 51.3358 66.8046 49.879C68.4997 48.1756 69.4369 46.1312 69.4586 43.7158C69.4859 40.4581 67.4375 37.5742 64.3298 36.5533C61.5289 35.6354 58.8259 35.8384 56.3865 37.604C54.5637 38.9255 53.5694 40.7695 53.2135 42.9819C52.6349 46.578 55.0174 49.7191 57.4514 50.954C58.9238 51.7013 60.4152 51.6796 61.855 50.9106C63.8272 49.8545 64.9383 48.1837 65.1095 45.9524C65.1882 44.9478 64.797 44.0705 64.1124 43.334C63.6126 42.795 62.9334 42.6705 62.2597 42.9549C62.1022 43.0225 62.0858 43.074 62.1593 43.2283C62.4444 43.8241 62.5775 44.4414 62.3657 45.0968C62.0858 45.9578 61.3334 46.4426 60.551 46.2585C59.8366 46.0905 59.4182 45.4732 59.5242 44.7474C59.6273 44.038 59.967 43.4422 60.4315 42.9115C60.5537 42.7733 60.5646 42.6922 60.4206 42.5622C59.918 42.1073 59.3449 41.8446 58.6576 41.934C57.4731 42.0883 56.8293 43.12 57.1417 44.3223C57.3318 45.0535 57.7828 45.6059 58.3288 46.0987C58.7635 46.4913 59.2172 46.8623 59.6383 47.2685C60.0919 47.7045 60.4315 48.2109 60.3962 48.8824C60.3826 48.9014 60.3718 48.9365 60.3663 48.9718ZM59.0515 57.35C60.5701 57.4096 62.0669 57.323 63.5066 56.7651C61.9527 56.4212 60.4858 56.7489 59.0515 57.35ZM61.2465 43.6155C60.8634 43.9622 60.589 44.3521 60.4668 44.8368C60.4206 45.0209 60.437 45.1915 60.6298 45.2999C60.8118 45.4028 60.9884 45.4055 61.1595 45.2809C61.3198 45.1645 61.4067 45.002 61.4665 44.8205C61.6051 44.39 61.4502 44.0136 61.2465 43.6155ZM59.5079 60.5995C60.5945 60.8459 61.6132 60.8323 62.6427 60.5562C62.2678 60.0958 60.3907 60.1933 59.5079 60.5995Z" fill="#141820"/>
<path d="M98.54 41.7709C98.586 41.1264 98.6455 40.4792 98.678 39.8293C98.8494 36.4065 98.8764 32.981 98.8656 29.5528C98.8656 29.3633 98.9197 29.2387 99.0694 29.1277C99.7215 28.6457 100.428 28.689 101.101 29.0086C102.022 29.4472 102.552 30.1973 102.561 31.2426C102.571 32.3555 102.386 33.4522 102.191 34.5435C101.873 36.3118 101.772 38.099 101.699 39.8889C101.601 42.2908 101.493 44.6927 101.403 47.0973C101.319 49.3422 101.189 51.587 101.2 53.8345C101.208 55.5676 101.281 57.298 101.726 58.9877C101.794 59.2449 101.865 59.5076 101.982 59.7432C102.08 59.9436 102.049 60.0817 101.925 60.2469C101.514 60.8075 100.906 60.9862 100.267 60.7072C99.7648 60.4879 99.3517 60.1521 99.0342 59.708C98.8737 59.486 98.7952 59.2476 98.7844 58.9634C98.7682 58.4543 98.7051 57.9452 98.6564 57.363C98.2298 57.8206 97.8528 58.2213 97.4316 58.5788C96.638 59.2558 95.7848 59.8461 94.7395 60.0303C92.6147 60.4039 90.1537 59.6647 88.8036 57.2194C88.1489 56.0334 87.8555 54.7499 87.8093 53.4094C87.6843 49.7131 88.4857 46.2037 90.0287 42.854C90.4277 41.9875 90.9526 41.1887 91.6696 40.5414C93.0089 39.3283 94.6061 39.1469 96.2114 39.9945C97.024 40.4223 97.6598 41.0668 98.3389 41.6599C98.3822 41.6977 98.4309 41.733 98.4769 41.7682C98.4769 41.7763 98.4913 41.7709 98.54 41.7709ZM98.4688 47.907C98.4913 47.1921 98.4498 46.4799 98.2622 45.7867C97.9908 44.7794 97.5777 43.8424 96.7498 43.1546C95.7172 42.2962 94.4239 42.4045 93.5437 43.4037C93.2533 43.7341 93.0089 44.097 92.8294 44.4923C91.528 47.3844 90.8381 50.4063 90.912 53.5827C90.9337 54.5305 91.1122 55.4512 91.5145 56.315C91.9194 57.1789 92.5119 57.8206 93.5491 57.8612C94.3562 57.8937 95.0462 57.6067 95.6333 57.0651C96.1898 56.5534 96.5866 55.9251 96.8932 55.2454C97.9502 52.9139 98.4174 50.4551 98.4688 47.907Z" fill="#141820"/>
<path d="M145.981 58.6439C144.935 59.3074 143.871 59.7759 142.707 60.0006C140.026 60.5233 137.62 59.9465 135.607 58.0861C134.278 56.8568 134.172 55.0858 135.24 53.6208C136.096 52.4456 137.28 51.6684 138.541 50.9915C139.665 50.3903 140.863 50.0952 142.148 50.1276C143.284 50.1547 144.419 50.1195 145.552 50.1439C145.889 50.152 145.93 49.9895 145.932 49.7404C145.943 48.909 145.913 48.0778 145.831 47.2492C145.753 46.4476 145.634 45.6596 145.334 44.9068C144.832 43.6422 143.919 42.9977 142.656 43.033C141.836 43.0546 141.198 43.4689 140.67 44.0484C139.638 45.1776 138.926 46.472 138.734 48.0101C138.695 48.3134 138.712 48.622 138.706 48.9307C138.695 49.448 138.334 49.7512 137.821 49.67C136.899 49.5238 135.989 48.4623 136.098 47.5497C136.356 45.3617 137.142 43.3714 138.56 41.6681C139.407 40.6499 140.564 40.2817 141.887 40.3358C144.003 40.4252 145.796 41.243 147.291 42.708C148.388 43.7857 148.926 45.1072 148.928 46.6561C148.934 49.4588 148.969 52.2642 148.994 55.0669C149.008 56.613 149.029 58.1566 149.043 59.7028C149.048 60.2038 148.834 60.5016 148.35 60.6506C147.88 60.7968 147.412 60.7724 146.942 60.6234C146.456 60.4691 145.919 59.7894 145.981 59.2262C145.997 59.0529 145.981 58.8742 145.981 58.6439ZM141.032 57.6123C142.553 57.5906 143.843 57.0084 144.943 55.9848C145.476 55.492 145.788 54.8746 145.905 54.157C146.065 53.1713 145.71 52.5919 144.715 52.4293C142.9 52.1342 141.156 52.3806 139.524 53.2525C138.997 53.5342 138.56 53.9296 138.323 54.4874C137.832 55.6544 138.063 56.6889 139.298 57.2548C139.85 57.5094 140.426 57.6231 141.032 57.6123Z" fill="#141820"/>
<path d="M130.033 58.6416C128.987 59.3078 127.919 59.7681 126.76 60.0037C124.263 60.5047 121.992 59.9983 120.004 58.4142C118.273 57.0358 118.075 54.9453 119.55 53.2989C120.992 51.6878 122.78 50.5992 124.945 50.2011C125.235 50.147 125.54 50.1388 125.836 50.1388C127.062 50.1334 128.286 50.1361 129.509 50.1361C129.976 50.1361 129.976 50.1361 129.982 49.6514C129.993 48.7497 129.952 47.8479 129.851 46.9543C129.765 46.188 129.604 45.4352 129.303 44.7149C128.544 42.9168 126.346 42.4402 124.953 43.8212C123.589 45.1725 122.709 46.7729 122.766 48.7497C122.794 49.6297 122.126 49.8517 121.471 49.5485C120.501 49.1017 120.017 48.2622 120.183 47.1953C120.479 45.2781 121.19 43.518 122.354 41.9609C123.228 40.7884 124.434 40.2793 125.906 40.3389C127.9 40.4175 129.612 41.1513 131.082 42.4673C132.329 43.5857 132.972 44.9748 132.978 46.6619C132.986 49.5349 133.018 52.408 133.043 55.2811C133.056 56.7461 133.079 58.2138 133.092 59.6788C133.098 60.242 132.812 60.5832 132.256 60.6969C131.778 60.7944 131.3 60.7863 130.859 60.5615C130.332 60.2934 130.055 59.852 130.039 59.259C130.028 59.0694 130.033 58.8826 130.033 58.6416ZM125.057 57.6126C126.624 57.591 127.945 56.9898 129.061 55.9175C129.476 55.5194 129.746 55.0266 129.892 54.4688C130.21 53.2475 129.827 52.5597 128.613 52.3944C126.893 52.1589 125.227 52.3891 123.668 53.196C123.203 53.437 122.797 53.7538 122.524 54.2088C121.925 55.2025 121.867 56.6188 123.38 57.2742C123.916 57.5043 124.472 57.6207 125.057 57.6126Z" fill="#141820"/>
<path d="M110.63 60.1362C108.846 60.1146 107.55 59.8465 106.436 58.9962C105.292 58.1243 104.697 56.9138 104.358 55.5598C103.95 53.927 103.918 52.2671 104.07 50.6044C104.293 48.1592 104.852 45.7898 105.784 43.5125C106.118 42.6947 106.537 41.9229 107.093 41.2297C108.08 40.0057 109.329 39.6293 110.842 40.0274C112.386 40.4335 113.643 41.3136 114.812 42.348C115.58 43.0304 116.256 43.7913 116.718 44.7229C117.413 46.1256 117.292 47.5499 116.764 48.9553C115.74 51.693 112.652 53.7943 109.718 53.797C109.291 53.797 108.93 53.6183 108.563 53.4477C108.186 53.2744 107.824 53.0632 107.423 52.944C107.186 52.8737 107.099 52.9305 107.11 53.1851C107.153 54.1978 107.24 55.2024 107.702 56.1285C108.172 57.0763 108.927 57.5502 110.011 57.5583C111.424 57.5665 112.56 56.9815 113.556 56.0473C114.168 55.4733 114.667 54.8071 115.18 54.1517C115.284 54.0191 115.4 53.8945 115.507 53.7672C115.851 53.3556 116.256 53.1255 116.814 53.3258C117.351 53.5181 117.609 53.9162 117.686 54.4605C117.84 55.5761 117.455 56.5347 116.68 57.2929C114.893 59.0396 112.746 60.0252 110.63 60.1362ZM110.171 51.1758C111.008 51.1758 111.671 50.9348 112.301 50.3986C114.205 48.7766 114.442 45.6111 112.796 43.7317C112.507 43.4041 112.168 43.1577 111.747 43.0304C110.741 42.7271 109.772 43.0684 109.077 44.0431C108.06 45.4648 107.588 47.0733 107.659 48.8117C107.71 50.1983 108.789 51.1758 110.171 51.1758Z" fill="#141820"/>
<path d="M85.4943 42.2284C85.4318 43.2656 85.171 44.1917 84.9727 45.1314C84.8341 45.792 84.7445 46.4555 84.7445 47.1325C84.7526 50.1545 84.7553 53.1765 84.7445 56.1986C84.7418 57.1084 84.9184 57.9857 85.1302 58.8631C85.2498 59.3559 84.9346 59.8325 84.424 59.8596C83.0412 59.9273 81.7807 59.3559 81.7753 57.5308C81.7617 52.1123 81.7699 46.6938 81.7672 41.2725C81.7672 41.102 81.8187 41.0153 81.9682 40.9341C83.0955 40.3275 84.1333 40.5658 85.1384 41.2942C85.478 41.5325 85.5513 41.9035 85.4943 42.2284Z" fill="#141820"/>
<path d="M83.7861 33.0081C85.503 33.0081 86.682 34.4811 86.2582 36.1032C86.0599 36.8614 85.541 37.2432 84.6228 37.3055C83.4356 37.3868 82.1208 36.3821 81.9388 35.215C81.7704 34.1346 82.1969 33.0216 83.7861 33.0081Z" fill="#141820"/>
<path d="M55.0832 26.9803C55.2815 26.9912 55.4935 27.1049 55.6184 27.3432C56.2052 28.4886 56.7268 29.6584 57.0609 30.904C57.1017 31.0557 57.1071 31.2155 57.1342 31.3725C57.156 31.5052 57.1669 31.6406 57.0256 31.7084C56.8843 31.7761 56.7729 31.6812 56.6833 31.5892C56.504 31.4051 56.3111 31.229 56.1644 31.0179C55.4908 30.062 54.8904 29.0627 54.3932 28.0039C54.1515 27.4975 54.4774 26.9722 55.0832 26.9803Z" fill="#141820"/>
<path d="M47.204 32.6891C47.3507 32.6783 47.4839 32.727 47.5952 32.8083C48.8937 33.7181 50.2004 34.6199 51.3604 35.7058C51.4663 35.8059 51.6755 35.9088 51.575 36.0822C51.4663 36.269 51.2707 36.139 51.1214 36.0822C49.6109 35.5243 48.2146 34.7363 46.8129 33.9618C46.5385 33.8102 46.4407 33.4555 46.5412 33.1522C46.6309 32.8814 46.9052 32.6918 47.204 32.6891Z" fill="#141820"/>
<path d="M66.8215 26.9696C67.3268 26.9696 67.6827 27.468 67.4571 27.9201C66.797 29.2416 66.0228 30.4954 65.0693 31.6327C64.9932 31.7221 64.9063 31.7871 64.7868 31.7328C64.6265 31.6598 64.6727 31.5163 64.6998 31.3944C64.9008 30.5062 65.2106 29.6505 65.5528 28.8083C65.7484 28.3236 65.9658 27.8471 66.183 27.3704C66.3053 27.1078 66.5227 26.9669 66.8215 26.9696Z" fill="#141820"/>
<path d="M73.9733 32.548C74.3265 32.548 74.5438 32.697 74.6606 32.9814C74.7856 33.29 74.7068 33.5879 74.4188 33.7964C74.082 34.0428 73.7343 34.273 73.3838 34.4951C72.5281 35.0312 71.6887 35.5998 70.7678 36.0223C70.6863 36.0602 70.6047 36.0981 70.5206 36.1279C70.4309 36.1604 70.3304 36.2281 70.2543 36.1143C70.1891 36.0196 70.2353 35.9248 70.2924 35.8409C70.5043 35.5402 70.7542 35.2695 71.0177 35.015C71.8001 34.2541 72.5988 33.5093 73.4327 32.8053C73.5985 32.6645 73.7696 32.5291 73.9733 32.548Z" fill="#141820"/>
<path d="M74.0111 43.2794C73.9405 43.2767 73.8725 43.2713 73.8019 43.2686C73.7069 43.2686 73.6226 43.2496 73.5819 43.1522C73.5384 43.0465 73.5792 42.9599 73.6498 42.884C73.8291 42.6945 74.0355 42.5428 74.2665 42.4237C75.277 41.8984 76.312 41.4245 77.3906 41.0481C77.8823 40.8775 78.2897 41.1672 78.249 41.6465C78.2326 41.8361 78.1539 42.0067 77.98 42.0798C76.7032 42.6322 75.383 43.0438 74.0111 43.2794Z" fill="#141820"/>
<path d="M47.3864 42.8406C46.4274 42.7891 45.626 42.7295 44.83 42.6076C44.4525 42.5508 44.2324 42.3721 44.1971 42.0851C44.1482 41.6952 44.4307 41.3566 44.8219 41.3972C45.9982 41.5218 47.1554 41.7466 48.2882 42.0904C48.4377 42.1365 48.5708 42.2313 48.712 42.3044C48.8153 42.3585 48.8886 42.4344 48.8642 42.5644C48.8424 42.6781 48.7474 42.7106 48.6522 42.7431C48.185 42.9029 47.7042 42.8406 47.3864 42.8406Z" fill="#141820"/>
<path d="M59.0513 57.3496C60.4857 56.7484 61.9526 56.4207 63.5065 56.7647C62.0667 57.3198 60.5699 57.4092 59.0513 57.3496Z" fill="#141820"/>
<path d="M61.2464 43.615C61.4501 44.0104 61.6077 44.3868 61.4637 44.82C61.4039 45.0015 61.317 45.1666 61.1567 45.2804C60.9829 45.405 60.809 45.405 60.627 45.2993C60.4369 45.191 60.4178 45.0177 60.464 44.8363C60.5889 44.3515 60.8634 43.9616 61.2464 43.615Z" fill="#141820"/>
<path d="M59.5075 60.5993C60.3904 60.1931 62.2676 60.0982 62.6424 60.5559C61.6128 60.8321 60.5942 60.843 59.5075 60.5993Z" fill="#141820"/>
</g>
<g clip-path="url(#clip4_1_125)">
<path d="M1094 74.6162V14.3838C1094 6.43986 1087.54 0 1079.57 0L915.43 0C907.46 0 901 6.43986 901 14.3838V74.6162C901 82.5601 907.46 89 915.43 89L1079.57 89C1087.54 89 1094 82.5601 1094 74.6162Z" fill="white" fill-opacity="0.35"/>
<path d="M911.822 21.5758V67.4243C911.822 73.3823 916.668 78.2122 922.645 78.2122L1072.36 78.2122C1078.33 78.2122 1083.18 73.3823 1083.18 67.4243V21.5758C1083.18 15.6178 1078.33 10.7879 1072.36 10.7879L922.645 10.7879C916.668 10.7879 911.822 15.6178 911.822 21.5758Z" fill="white" fill-opacity="0.3"/>
<path d="M926.252 38.5469C926.407 38.1525 926.404 37.7284 926.48 37.3205C927.382 32.4256 931.412 28.3086 936.326 27.2739C937.261 27.0768 938.204 26.9741 939.16 26.9768C942.567 26.9849 945.973 26.9498 949.38 26.9876C952.716 27.0255 955.608 28.233 958.025 30.513C960.147 32.5147 961.418 34.9757 961.879 37.8473C961.982 38.4821 962.022 39.1224 962.022 39.7653C962.02 43.1745 962.047 46.5863 962.009 49.9955C961.971 53.3155 960.759 56.1925 958.47 58.6022C956.459 60.7146 953.984 61.9735 951.101 62.4436C950.827 62.4895 950.54 62.4598 950.277 62.5759C946.144 62.5759 942.011 62.5759 937.878 62.5759C937.859 62.4922 937.786 62.5192 937.735 62.5138C937.263 62.4544 936.794 62.3788 936.328 62.2815C931.418 61.2469 927.388 57.1272 926.485 52.2349C926.41 51.8271 926.412 51.4029 926.258 51.0085C926.252 46.8538 926.252 42.7017 926.252 38.5469ZM937.925 33.9491C937.925 34.1221 937.925 34.2301 937.925 34.3354C937.925 38.4497 937.922 42.5613 937.933 46.6755C937.933 46.9537 937.857 47.0024 937.602 46.9699C937.106 46.9051 936.61 46.9348 936.122 47.0375C935.12 47.2481 934.214 47.6453 933.559 48.4692C932.702 49.5497 932.916 51.0545 934.03 51.8027C934.502 52.1188 935.036 52.2647 935.588 52.3457C936.835 52.5321 938.03 52.4241 939.074 51.6407C940.177 50.8113 940.832 49.7659 940.808 48.3206C940.767 45.9893 940.797 43.6553 940.797 41.3213C940.797 41.2267 940.797 41.1322 940.797 41.0377C940.9 41.0538 940.935 41.1079 940.981 41.1565C942.185 42.4019 943.393 43.6472 944.597 44.8925C944.895 45.2005 944.889 45.2032 945.185 44.9088C946.434 43.6634 947.686 42.4207 948.938 41.1782C949.006 41.1106 949.057 40.9971 949.19 41.0025C949.19 41.0755 949.19 41.1349 949.19 41.1943C949.19 45.9893 949.193 50.7843 949.185 55.5794C949.185 55.8197 949.231 55.8953 949.486 55.89C950.261 55.8711 951.036 55.8765 951.811 55.8873C952.011 55.8899 952.076 55.8495 952.076 55.6334C952.071 48.5043 952.071 41.3753 952.068 34.249C952.068 34.1815 952.117 34.0896 952.009 34.0383C949.705 36.3318 947.402 38.6253 945.103 40.9242C944.96 41.0674 944.889 41.0863 944.74 40.9323C943.77 39.9274 942.792 38.9305 941.816 37.9337C940.537 36.6208 939.255 35.3106 937.925 33.9491Z" fill="#141820"/>
<path d="M971.802 41.7287C971.924 41.7341 971.919 41.6531 971.943 41.6099C972.932 39.8594 974.425 38.9517 976.447 38.9139C977.336 38.8977 978.211 38.9814 979.052 39.2921C980.176 39.7081 980.981 40.4726 981.504 41.5397C981.534 41.6018 981.561 41.6639 981.594 41.726C981.602 41.7396 981.626 41.7477 981.656 41.7666C982.033 41.1372 982.477 40.5617 983.052 40.0971C984.068 39.2786 985.258 38.9625 986.534 38.922C987.534 38.8895 988.515 38.9923 989.436 39.4244C991.019 40.1647 991.841 41.4802 992.23 43.1146C992.423 43.925 992.505 44.749 992.505 45.581C992.505 48.6363 992.502 51.6915 992.513 54.7468C992.513 55.025 992.434 55.0872 992.168 55.0818C991.076 55.0656 989.984 55.0683 988.889 55.0818C988.626 55.0845 988.542 55.0304 988.542 54.7495C988.553 51.9022 988.548 49.0549 988.55 46.2077C988.55 45.7025 988.518 45.2001 988.409 44.7057C988.027 42.9822 986.867 42.3338 985.244 42.5013C983.729 42.658 982.732 43.6467 982.398 45.219C982.29 45.735 982.255 46.2563 982.252 46.7777C982.249 49.4385 982.247 52.0968 982.258 54.7576C982.258 55.0197 982.195 55.0872 981.932 55.0818C980.829 55.0656 979.726 55.0629 978.623 55.0818C978.336 55.0872 978.29 54.9927 978.29 54.736C978.298 51.7213 978.295 48.7038 978.295 45.689C978.295 45.2217 978.249 44.7651 978.125 44.3113C977.827 43.2173 977.141 42.5851 975.986 42.4905C974.469 42.369 973.19 42.8931 972.48 44.26C972.146 44.9029 972.019 45.5999 972.016 46.3211C972.013 49.1279 972.011 51.9374 972.022 54.7441C972.022 55.0197 971.946 55.0845 971.677 55.0818C970.556 55.0656 969.434 55.0683 968.309 55.0818C968.081 55.0845 968.032 55.017 968.032 54.7981C968.038 49.7249 968.038 44.6544 968.035 39.5811C968.035 39.3921 968.057 39.3029 968.284 39.3056C969.377 39.3191 970.469 39.3164 971.564 39.3056C971.772 39.3029 971.802 39.3786 971.799 39.5568C971.789 40.1889 971.797 40.8211 971.797 41.4559C971.802 41.5477 971.802 41.6396 971.802 41.7287Z" fill="#141820"/>
<path d="M1065.72 52.9237C1065.38 53.2748 1065.11 53.6476 1064.77 53.9664C1063.74 54.9336 1062.48 55.3495 1061.1 55.4414C1059.73 55.5333 1058.4 55.3306 1057.19 54.6526C1055.7 53.8178 1054.85 52.5698 1054.81 50.8246C1054.77 48.9769 1055.52 47.5587 1057.12 46.6105C1058.21 45.9703 1059.41 45.6812 1060.64 45.4894C1062.22 45.2408 1063.82 45.2381 1065.42 45.2571C1065.67 45.2598 1065.72 45.2004 1065.73 44.9518C1065.76 43.0122 1064.5 42.1451 1062.87 41.937C1061.06 41.702 1059.44 42.2018 1058.05 43.3985C1057.93 43.5066 1057.87 43.5012 1057.76 43.3824C1057.2 42.815 1056.64 42.2585 1056.08 41.6994C1055.81 41.4373 1055.81 41.4373 1056.09 41.1752C1057.22 40.1217 1058.57 39.495 1060.08 39.1816C1061.8 38.8223 1063.52 38.7602 1065.23 39.2545C1067.7 39.9758 1068.85 41.4994 1069.19 44.055C1069.28 44.6844 1069.28 45.3165 1069.28 45.9486C1069.28 48.8851 1069.28 51.8188 1069.29 54.7552C1069.29 55.0253 1069.21 55.0794 1068.96 55.0767C1067.96 55.0605 1066.97 55.0632 1065.98 55.0767C1065.76 55.0794 1065.71 55.0146 1065.72 54.8119C1065.73 54.1825 1065.72 53.5531 1065.72 52.9237ZM1064.25 48.0098C1063.51 48.0287 1062.78 48.0584 1062.05 48.1611C1061.13 48.2934 1060.22 48.5096 1059.45 49.0714C1059 49.3902 1058.79 49.8251 1058.77 50.3573C1058.74 51.2542 1059.31 51.9917 1060.29 52.3078C1061.03 52.5482 1061.8 52.532 1062.55 52.4212C1063.81 52.2375 1064.76 51.6351 1065.23 50.4141C1065.52 49.6793 1065.5 48.9067 1065.5 48.1341C1065.5 47.9909 1065.41 48.0071 1065.32 48.0071C1064.96 48.0098 1064.61 48.0098 1064.25 48.0098Z" fill="#141820"/>
<path d="M1007.43 52.5886C1007.04 53.2505 1006.57 53.8367 1006 54.3445C1005.24 55.0118 1004.34 55.3386 1003.35 55.4224C1002.01 55.5332 1000.71 55.4386 999.505 54.7714C998.111 53.9988 997.35 52.7777 997.008 51.2622C996.857 50.5841 996.795 49.898 996.795 49.2037C996.795 46.0107 996.797 42.8176 996.787 39.6219C996.787 39.3544 996.857 39.2977 997.115 39.3031C998.218 39.3193 999.321 39.3166 1000.42 39.3031C1000.68 39.3004 1000.77 39.3463 1000.77 39.6299C1000.75 42.299 1000.75 44.968 1000.76 47.6397C1000.77 48.4096 1000.81 49.1795 1001.05 49.9223C1001.64 51.7241 1002.8 52.0294 1004.25 51.8701C1005.72 51.708 1006.98 50.6247 1007.2 48.6446C1007.24 48.2906 1007.25 47.9368 1007.25 47.5803C1007.24 44.9193 1007.25 42.2611 1007.24 39.6003C1007.24 39.3815 1007.28 39.3004 1007.52 39.3031C1008.66 39.3193 1009.79 39.3193 1010.92 39.3031C1011.17 39.3004 1011.2 39.3815 1011.2 39.6003C1011.2 44.6627 1011.2 49.7252 1011.2 54.7875C1011.2 55.0253 1011.14 55.0794 1010.91 55.0767C1009.84 55.0658 1008.76 55.0658 1007.69 55.0767C1007.48 55.0794 1007.42 55.0225 1007.43 54.8146C1007.44 54.0717 1007.43 53.3315 1007.43 52.5886Z" fill="#141820"/>
<path d="M1019.23 51.9056C1019.4 51.9056 1019.51 51.9056 1019.62 51.9056C1022.36 51.9056 1025.1 51.9084 1027.84 51.9002C1028.08 51.9002 1028.16 51.9462 1028.16 52.2028C1028.14 53.0727 1028.14 53.9426 1028.16 54.8123C1028.16 55.0204 1028.1 55.0744 1027.89 55.0744C1023.52 55.069 1019.15 55.069 1014.78 55.0744C1014.56 55.0744 1014.52 54.9988 1014.53 54.807C1014.53 53.748 1014.53 52.6918 1014.53 51.6329C1014.53 51.4708 1014.58 51.3626 1014.69 51.2465C1017.41 48.3857 1020.13 45.5196 1022.85 42.6533C1022.89 42.6129 1022.95 42.5831 1022.95 42.5075C1022.85 42.4345 1022.74 42.475 1022.64 42.475C1020.17 42.4723 1017.71 42.467 1015.25 42.4804C1014.97 42.4831 1014.93 42.4021 1014.93 42.1536C1014.95 41.2837 1014.95 40.4139 1014.93 39.5441C1014.93 39.3441 1014.99 39.3036 1015.18 39.3036C1019.29 39.309 1023.41 39.309 1027.52 39.3036C1027.7 39.3036 1027.77 39.336 1027.77 39.5414C1027.76 40.6003 1027.76 41.6565 1027.76 42.7155C1027.76 42.8586 1027.71 42.9505 1027.62 43.0478C1024.84 45.9788 1022.06 48.9125 1019.23 51.9056Z" fill="#141820"/>
<path d="M1039.26 47.1592C1039.32 44.0714 1040.53 41.57 1043.3 40.0652C1046.18 38.4985 1049.15 38.4498 1052.06 40.0842C1052.57 40.3678 1053 40.7514 1053.41 41.1566C1053.52 41.2674 1053.54 41.3349 1053.42 41.4592C1052.59 42.2722 1051.77 43.0908 1050.95 43.912C1050.83 44.0363 1050.77 44.0201 1050.66 43.9039C1050.07 43.315 1049.43 42.7937 1048.61 42.5856C1047.37 42.2723 1046.21 42.5505 1045.19 43.2664C1043.67 44.3281 1043.07 45.8517 1043.23 47.6454C1043.38 49.4688 1044.3 50.8277 1046.02 51.557C1047.54 52.1973 1049.52 52.0379 1050.75 50.5683C1050.86 50.4414 1050.91 50.4468 1051.02 50.5656C1051.81 51.4247 1052.6 52.2783 1053.41 53.1266C1053.53 53.2562 1053.47 53.3156 1053.37 53.4048C1052.36 54.3179 1051.16 54.8771 1049.85 55.1769C1046.71 55.8928 1043.89 55.2553 1041.55 52.9995C1040.08 51.5841 1039.37 49.7849 1039.26 47.7507C1039.25 47.5562 1039.26 47.3563 1039.26 47.1592Z" fill="#141820"/>
<path d="M1035.51 47.2C1035.51 49.7204 1035.5 52.2408 1035.52 54.7612C1035.52 55.0368 1035.44 55.08 1035.19 55.0746C1034.07 55.0611 1032.94 55.0638 1031.82 55.0746C1031.6 55.0773 1031.54 55.0206 1031.54 54.7964C1031.55 49.7258 1031.55 44.6526 1031.54 39.582C1031.54 39.3659 1031.59 39.2984 1031.82 39.3011C1032.96 39.3146 1034.1 39.3146 1035.24 39.3011C1035.47 39.2984 1035.52 39.3578 1035.52 39.5767C1035.51 42.1186 1035.51 44.6607 1035.51 47.2Z" fill="#141820"/>
<path d="M1036.06 33.9893C1036.05 35.3374 1034.96 36.3449 1033.5 36.3449C1032.09 36.3423 1030.99 35.2968 1030.99 33.9651C1030.99 32.6846 1032.11 31.5527 1033.57 31.5986C1035 31.6418 1036.06 32.6251 1036.06 33.9893Z" fill="#141820"/>
</g>
<g clip-path="url(#clip5_1_125)">
<path d="M644 74.6162V14.3838C644 6.43986 637.54 0 629.57 0L465.43 0C457.46 0 451 6.43986 451 14.3838V74.6162C451 82.5601 457.46 89 465.43 89L629.57 89C637.54 89 644 82.5601 644 74.6162Z" fill="white" fill-opacity="0.35"/>
<path d="M461.822 21.5758V67.4243C461.822 73.3823 466.668 78.2122 472.645 78.2122L622.355 78.2122C628.332 78.2122 633.178 73.3823 633.178 67.4243V21.5758C633.178 15.6178 628.332 10.7879 622.355 10.7879L472.645 10.7879C466.668 10.7879 461.822 15.6178 461.822 21.5758Z" fill="white" fill-opacity="0.3"/>
<path d="M513.555 26.997C513.32 27.765 513.085 28.5303 512.85 29.2983C511.656 33.1928 510.462 37.0873 509.26 40.9818C509.195 41.197 509.206 41.2569 509.454 41.2842C510.728 41.4258 511.995 41.5919 513.266 41.7417C513.41 41.758 513.495 41.8124 513.572 41.935C514.525 43.5092 515.479 45.086 516.446 46.652C516.561 46.8372 516.446 46.9216 516.359 47.0306C514.618 49.2039 512.878 51.3772 511.137 53.5505C508.804 56.4618 506.473 59.3759 504.138 62.2873C504.056 62.3907 503.998 62.5296 503.804 62.5759C503.935 62.1484 504.056 61.7507 504.181 61.3531C505.52 57.0446 506.856 52.7389 508.203 48.4331C508.277 48.2016 508.252 48.1417 508.004 48.1145C506.76 47.9756 505.523 47.8122 504.282 47.6679C504.086 47.646 503.965 47.5834 503.859 47.4064C502.935 45.8704 502.001 44.3425 501.061 42.8147C500.957 42.6459 500.963 42.5423 501.091 42.3789C505.159 37.327 509.219 32.2722 513.279 27.2148C513.348 27.1304 513.419 27.0514 513.49 26.9697C513.514 26.9833 513.533 26.9888 513.555 26.997Z" fill="#141820"/>
<path d="M506.439 60.7731C507.419 59.5476 508.378 58.352 509.335 57.1509C509.449 57.0066 509.602 57.0339 509.744 57.023C511.69 56.8596 513.509 56.2958 515.154 55.2527C518.599 53.0712 520.602 49.9638 520.993 45.9032C521.531 40.3201 518.162 35.1184 512.845 33.2391C512.624 33.1602 512.556 33.0921 512.635 32.8497C512.974 31.8012 513.296 30.7445 513.605 29.6879C513.676 29.4482 513.766 29.4155 513.993 29.4972C518.015 30.9297 521.08 33.4952 523.083 37.2481C526.348 43.3731 525.351 50.7563 520.58 55.8273C517.903 58.6761 514.591 60.3429 510.692 60.8331C509.316 61.0046 507.939 60.9801 506.564 60.8112C506.537 60.8112 506.512 60.7977 506.439 60.7731Z" fill="#141820"/>
<path d="M510.936 28.7884C510.504 29.3277 510.103 29.8315 509.701 30.3326C509.157 31.0108 508.611 31.6834 508.073 32.3643C507.966 32.5005 507.849 32.5659 507.676 32.5822C502.231 33.0942 497.846 36.8744 496.704 42.2068C495.822 46.3273 496.879 49.9958 499.718 53.1278C501.067 54.6176 502.723 55.6742 504.622 56.3469C504.78 56.4041 504.835 56.4504 504.775 56.6329C504.422 57.7304 504.081 58.8307 503.75 59.9337C503.687 60.1434 503.597 60.127 503.433 60.0671C499.403 58.621 496.36 56.0283 494.349 52.2618C492.824 49.4076 492.218 46.3437 492.595 43.141C493.256 37.4953 496.141 33.2767 501.127 30.526C504.004 28.9383 507.127 28.4017 510.398 28.7122C510.556 28.7312 510.715 28.7585 510.936 28.7884Z" fill="#141820"/>
<path d="M596.968 53.0383C595.698 53.0383 594.449 53.0356 593.198 53.041C592.996 53.041 593.009 52.8967 592.974 52.7878C592.575 51.5377 592.173 50.2904 591.793 49.0348C591.728 48.817 591.632 48.7652 591.419 48.7652C589.548 48.7734 587.676 48.7734 585.801 48.7652C585.597 48.7652 585.509 48.817 585.447 49.0158C585.058 50.2795 584.652 51.5377 584.264 52.7986C584.209 52.9811 584.132 53.041 583.935 53.041C582.767 53.0301 581.594 53.0356 580.381 53.0356C580.548 52.5508 580.703 52.0933 580.862 51.6357C582.706 46.3441 584.551 41.0552 586.387 35.7636C586.469 35.5293 586.567 35.4504 586.821 35.4531C588.083 35.4694 589.343 35.4639 590.605 35.4558C590.791 35.4558 590.878 35.4994 590.944 35.6873C592.93 41.3902 594.922 47.093 596.913 52.7932C596.935 52.8695 596.946 52.9484 596.968 53.0383ZM588.613 38.8111C588.58 38.8737 588.553 38.9145 588.54 38.9608C587.826 41.2349 587.119 43.5117 586.398 45.7831C586.324 46.0118 586.419 46.0009 586.583 46.0009C587.933 45.9982 589.285 45.9955 590.635 46.0037C590.856 46.0037 590.9 45.971 590.827 45.7422C590.159 43.6506 589.506 41.5563 588.848 39.4619C588.779 39.2496 588.744 39.0235 588.613 38.8111Z" fill="#141820"/>
<path d="M555.509 42.9267C555.509 42.461 555.506 41.998 555.509 41.5323C555.511 41.1564 555.522 40.7779 555.53 40.4021C555.915 40.334 556.304 40.3884 556.689 40.3721C556.738 40.3694 556.79 40.3776 556.839 40.3694C557.008 40.3448 557.061 40.4103 557.055 40.5791C557.042 40.9168 557.053 41.2572 557.053 41.595C557.053 45.3124 557.053 49.0299 557.053 52.7474C557.053 55.3129 555.533 57.1321 552.987 57.587C551.443 57.862 549.935 57.7722 548.52 57.0395C547.44 56.4786 546.651 55.6588 546.323 54.4523C546.268 54.2535 546.277 54.1717 546.52 54.1826C546.941 54.2018 547.361 54.1881 547.782 54.1881C547.87 54.1881 547.952 54.1717 548.001 54.2862C548.506 55.4953 549.511 56.04 550.733 56.2525C551.645 56.4104 552.55 56.3424 553.41 55.9802C554.689 55.4409 555.35 54.4495 555.413 53.0851C555.454 52.2 555.421 51.3122 555.421 50.3454C555.156 50.8764 554.885 51.3203 554.522 51.6989C552.323 53.9703 548.487 53.559 546.771 50.8655C545.894 49.4875 545.64 47.9515 545.681 46.3501C545.713 45.1327 545.957 43.9643 546.525 42.8749C548.162 39.7376 552.026 39.5196 554.039 41.1456C554.342 41.3907 554.618 41.663 554.858 41.9735C555.088 42.2704 555.28 42.5945 555.509 42.9267ZM555.424 46.7668C555.421 45.7372 555.285 44.8059 554.869 43.9371C554.173 42.4746 553.036 41.6167 551.374 41.6031C549.728 41.5895 548.566 42.4065 547.924 43.8744C547.116 45.721 547.116 47.6165 547.927 49.4657C548.542 50.8655 549.659 51.6662 551.217 51.7153C552.749 51.7616 553.91 51.0753 554.678 49.7598C555.227 48.8148 555.41 47.7717 555.424 46.7668Z" fill="#141820"/>
<path d="M602.464 44.258C602.464 47.0876 602.461 49.9173 602.469 52.7496C602.469 52.9784 602.419 53.0492 602.179 53.0465C601.138 53.0329 600.097 53.0356 599.056 53.0438C598.849 53.0465 598.764 53.0165 598.764 52.7742C598.772 47.0849 598.772 41.3929 598.767 35.7036C598.767 35.5048 598.824 35.4586 599.018 35.4586C600.078 35.4667 601.14 35.4721 602.201 35.4558C602.436 35.4531 602.472 35.5239 602.472 35.7363C602.464 38.5796 602.464 41.4174 602.464 44.258Z" fill="#141820"/>
<path d="M561.579 42.5718C561.937 41.9781 562.333 41.4552 562.877 41.0467C564.732 39.6604 567.789 39.9029 569.24 41.5641C570.032 42.471 570.342 43.5577 570.347 44.7342C570.358 47.406 570.347 50.0749 570.355 52.7466C570.355 52.9754 570.306 53.0598 570.06 53.0462C569.691 53.0244 569.32 53.0299 568.948 53.0434C568.748 53.0516 568.697 52.989 568.699 52.7929C568.707 51.5973 568.705 50.4017 568.705 49.2061C568.705 47.7708 568.737 46.3356 568.697 44.9004C568.628 42.4575 566.926 41.3408 564.694 41.6622C562.877 41.9236 561.694 43.2581 561.61 45.0883C561.522 47.0001 561.59 48.9147 561.576 50.8266C561.571 51.4748 561.568 52.123 561.579 52.7711C561.582 52.9672 561.547 53.0571 561.322 53.0462C560.923 53.0272 560.522 53.0353 560.121 53.0434C559.981 53.0462 559.91 53.008 559.929 52.861C559.935 52.8119 559.929 52.7602 559.929 52.7112C559.929 47.071 559.931 41.4307 559.923 35.7905C559.923 35.5426 559.957 35.4337 560.241 35.4582C560.588 35.4882 560.942 35.4827 561.29 35.4582C561.541 35.4391 561.576 35.5372 561.576 35.7578C561.568 37.9202 561.571 40.0826 561.571 42.245C561.579 42.354 561.579 42.4629 561.579 42.5718Z" fill="#141820"/>
<path d="M529.105 44.2255C529.105 41.404 529.108 38.5852 529.1 35.7637C529.1 35.516 529.155 35.4424 529.406 35.4587C529.786 35.4832 530.165 35.4751 530.548 35.4615C530.728 35.456 530.791 35.4968 530.786 35.6902C530.772 36.1968 530.78 36.706 530.78 37.2153C530.78 41.8698 530.783 46.5241 530.772 51.1784C530.772 51.4534 530.846 51.5134 531.113 51.5134C533.816 51.5025 536.52 51.5079 539.222 51.5079C539.61 51.5079 539.61 51.5079 539.61 51.911C539.61 52.1697 539.583 52.4312 539.616 52.6872C539.657 53.0086 539.523 53.0576 539.236 53.0521C538.176 53.0358 537.113 53.0467 536.053 53.0467C533.862 53.0467 531.668 53.0385 529.477 53.0549C529.149 53.0576 529.097 52.9568 529.1 52.6627C529.108 49.8467 529.105 47.0361 529.105 44.2255Z" fill="#141820"/>
<path d="M573.745 46.2031C573.745 44.7978 573.74 43.3925 573.751 41.9872C573.753 41.7639 573.698 41.7012 573.472 41.7121C573.013 41.7312 572.551 41.7121 572.089 41.7203C571.914 41.7231 571.835 41.6903 571.846 41.4943C571.862 41.1866 571.859 40.876 571.846 40.5683C571.841 40.4104 571.893 40.3641 572.048 40.3668C572.538 40.3749 573.029 40.3586 573.521 40.3749C573.715 40.3803 573.748 40.3178 573.748 40.1408C573.74 39.2447 573.751 38.346 573.737 37.45C573.734 37.2348 573.797 37.1858 574.001 37.194C574.382 37.2103 574.764 37.2103 575.144 37.194C575.338 37.1858 575.373 37.2484 575.37 37.4281C575.362 38.3242 575.373 39.2229 575.36 40.1189C575.357 40.334 575.42 40.3803 575.625 40.3749C576.294 40.3613 576.966 40.3776 577.636 40.3641C577.835 40.3613 577.895 40.4185 577.881 40.6119C577.865 40.8787 577.862 41.1511 577.881 41.418C577.897 41.644 577.838 41.7285 577.592 41.7203C576.923 41.7012 576.251 41.7203 575.581 41.7094C575.417 41.7067 575.36 41.7448 575.362 41.9191C575.368 44.569 575.365 47.2217 575.368 49.8716C575.368 50.1194 575.395 50.3699 575.458 50.6096C575.633 51.2714 576.049 51.6254 576.734 51.6663C577.073 51.6854 577.414 51.6717 577.753 51.6582C577.895 51.6527 577.947 51.6854 577.942 51.8352C577.931 52.1728 577.936 52.5133 577.939 52.851C577.939 52.9572 577.939 53.0362 577.791 53.0498C577.103 53.1152 576.411 53.1533 575.729 53.0199C574.579 52.7938 573.961 52.0939 573.805 50.8847C573.762 50.5497 573.74 50.212 573.74 49.8716C573.748 48.6542 573.745 47.4287 573.745 46.2031Z" fill="#141820"/>
<path d="M541.789 46.6819C541.789 44.6693 541.792 42.6566 541.784 40.6413C541.784 40.4208 541.834 40.3499 542.063 40.3608C542.431 40.3827 542.803 40.3772 543.175 40.3608C543.382 40.3526 543.445 40.4071 543.442 40.6195C543.432 41.7253 543.437 42.831 543.437 43.9394C543.437 46.8699 543.434 49.8003 543.442 52.7306C543.442 52.9758 543.387 53.0602 543.134 53.0466C542.776 53.0248 542.413 53.0276 542.052 53.0466C541.842 53.0575 541.784 52.9922 541.784 52.7824C541.792 50.748 541.789 48.7136 541.789 46.6819Z" fill="#141820"/>
<path d="M543.705 36.7355C543.708 37.3375 543.238 37.814 542.634 37.8277C542.041 37.8386 541.541 37.3564 541.536 36.7627C541.528 36.1663 542.009 35.6788 542.609 35.6761C543.216 35.6679 543.702 36.1391 543.705 36.7355Z" fill="#141820"/>
</g>
<defs>
<clipPath id="clip0_1_125">
<rect width="193" height="89" fill="white" transform="translate(225)"/>
</clipPath>
<clipPath id="clip1_1_125">
<rect width="193" height="89" fill="white" transform="translate(676)"/>
</clipPath>
<clipPath id="clip2_1_125">
<rect width="193" height="89" fill="white" transform="translate(1127)"/>
</clipPath>
<clipPath id="clip3_1_125">
<rect width="193" height="89" fill="white"/>
</clipPath>
<clipPath id="clip4_1_125">
<rect width="193" height="89" fill="white" transform="translate(901)"/>
</clipPath>
<clipPath id="clip5_1_125">
<rect width="193" height="89" fill="white" transform="translate(451)"/>
</clipPath>
</defs>
</svg>
